<svg xmlns="http://www.w3.org/2000/svg" enable-background="new 0 0 32 32" viewBox="0 0 32 32"><path d="M16.4,31C7.9,31,1,24.2,1,15.8C1,8.7,5.9,2.7,12.9,1c0.4-0.1,0.7,0,1,0.3c0.2,0.3,0.3,0.7,0.2,1
				c-0.5,1.4-0.8,2.9-0.8,4.4c0,7.3,6,13.2,13.4,13.2c1,0,2.1-0.1,3.1-0.3c0.4-0.1,0.7,0,1,0.3c0.2,0.3,0.3,0.7,0.2,1
				C28.8,26.9,22.9,31,16.4,31z M11.6,3.5C6.5,5.4,3,10.3,3,15.8C3,23.1,9,29,16.4,29c5.1,0,9.7-2.8,11.9-7.2
				c-0.6,0.1-1.1,0.1-1.7,0.1c-8.5,0-15.4-6.8-15.4-15.2C11.3,5.6,11.4,4.5,11.6,3.5z"/></svg>