<svg width="20" height="20" viewBox="0 0 30 30" fill="none" xmlns="http://www.w3.org/2000/svg">
  <path fill-rule="evenodd" clip-rule="evenodd" d="M13.7328 19.578C14.1119 19.578 14.4223 19.8652 14.4223 20.2164V25.819C14.4223 28.1253 12.3983 30 9.90883 30H6.01314C3.52368 30 1.5 28.1253 1.5 25.819V24.6667C1.5 22.3606 3.52368 20.4863 6.01314 20.4863H9.20813V21.7635H6.01314C4.28498 21.7635 2.87874 23.0659 2.87874 24.6667V25.819C2.87874 27.4202 4.28498 28.7227 6.01314 28.7227H9.90883C11.637 28.7227 13.0432 27.4199 13.0432 25.819V20.2164C13.0432 19.8652 13.3533 19.578 13.7328 19.578ZM20.7919 21.7635H23.9869C25.715 21.7635 27.1213 23.0659 27.1213 24.6667V25.819C27.1213 27.4202 25.715 28.7227 23.9869 28.7227H20.0912C18.363 28.7227 16.9568 27.4202 16.9568 25.819V20.2164C16.9568 19.8652 16.6468 19.578 16.2672 19.578C15.8881 19.578 15.5777 19.8655 15.5777 20.2164V25.819C15.5777 28.1249 17.6017 30 20.0912 30H23.9869C26.4763 30 28.5 28.1253 28.5 25.819V24.6667C28.5 22.3606 26.4763 20.4863 23.9869 20.4863H20.7919V21.7635ZM12.3901 13.5055C12.3901 13.9484 12.7492 14.3075 13.1921 14.3075C13.635 14.3075 13.9941 13.9484 13.9941 13.5055V12.7597C13.9941 12.3513 13.6332 12.0169 13.1923 12.0169C12.7511 12.0169 12.3901 12.3513 12.3901 12.7597V13.5055ZM16.8079 14.3075C17.2508 14.3075 17.6099 13.9484 17.6099 13.5055V12.7597C17.6099 12.3513 17.249 12.0169 16.8081 12.0169C16.3672 12.0169 16.0059 12.3516 16.0059 12.7597V13.5055C16.0059 13.9484 16.365 14.3075 16.8079 14.3075ZM22.1702 24.178H23.9869C24.2764 24.178 24.5143 24.399 24.5143 24.6667V25.819C24.5143 26.0872 24.2764 26.3078 23.9869 26.3078H20.0912C19.8001 26.3078 19.5637 26.0888 19.5637 25.819V20.7546C19.5637 20.4812 19.5949 20.2098 19.6715 19.945C19.7852 19.5508 19.996 19.1407 20.196 18.7781C20.4551 18.3084 20.7432 17.8494 21.0372 17.3976C21.5465 16.6149 22.0996 15.8481 22.5925 15.0588C23.4664 13.6588 24.3341 12.4587 24.7474 10.8534C24.9296 10.1458 25.0206 9.42026 25.0206 8.69301C25.0206 3.5668 20.5339 0 15 0C9.46611 0 4.97936 3.5668 4.97936 8.69301C4.97936 9.42026 5.07044 10.1458 5.25258 10.8534C5.66594 12.4587 6.53355 13.6588 7.40748 15.0588C7.90039 15.8481 8.45352 16.6149 8.96279 17.3976C9.25683 17.8494 9.54491 18.3084 9.80401 18.7781C10.004 19.1407 10.2148 19.5515 10.3285 19.945C10.4051 20.2098 10.4363 20.4812 10.4363 20.7546V25.819C10.4363 26.0888 10.1999 26.3078 9.90883 26.3078H6.01314C5.72356 26.3078 5.48566 26.0872 5.48566 25.819V24.6667C5.48566 24.399 5.72356 24.178 6.01314 24.178H7.82976V25.1706H9.20887V22.9007H6.01314C4.96264 22.9007 4.10655 23.6936 4.10655 24.6667V25.819C4.10655 26.2888 4.30765 26.7353 4.666 27.0674C5.02434 27.399 5.5061 27.5851 6.01314 27.5851H9.90883C10.9582 27.5851 11.8154 26.7911 11.8154 25.819V20.7546C11.8154 20.3686 11.7667 19.9888 11.6589 19.6155C11.5351 19.1871 11.3192 18.7505 11.1058 18.3542C10.8419 17.8656 10.5482 17.388 10.2471 16.9179C9.70959 16.0798 9.12449 15.2623 8.5985 14.4201C7.80337 13.146 6.96884 12.0162 6.59377 10.5586C6.43616 9.94744 6.3581 9.32108 6.3581 8.69301C6.3581 4.27167 10.227 1.27716 15 1.27716C19.773 1.27716 23.6419 4.27167 23.6419 8.69301C23.6419 9.32108 23.5638 9.94744 23.4062 10.5586C23.0312 12.0162 22.197 13.146 21.4015 14.4201C20.8763 15.2623 20.2904 16.0798 19.7533 16.9179C19.4522 17.388 19.1581 17.8656 18.8946 18.3542C18.6808 18.7505 18.4649 19.1871 18.3411 19.6155C18.2333 19.9888 18.1846 20.3686 18.1846 20.7546V25.819C18.1846 26.7911 19.0418 27.5851 20.0912 27.5851H23.9869C24.4939 27.5851 24.9757 27.399 25.334 27.0674C25.6924 26.7353 25.8935 26.2888 25.8935 25.819V24.6667C25.8935 23.6936 25.0374 22.9007 23.9869 22.9007H20.7919V25.1706H22.1702V24.178Z" fill="white" />
</svg>
